HIERARCHY
ROOT Hips
{
	OFFSET -335.845001 -574.368103 89.378365
	CHANNELS 6 Xposition Yposition Zposition Zrotation Yrotation Xrotation
	JOINT Spine
	{
		OFFSET 0.000000 2.080078 8.814247
		CHANNELS 6 Xposition Yposition Zposition Zrotation Yrotation Xrotation
		JOINT Spine1
		{
			OFFSET 0.000000 0.000000 8.844139
			CHANNELS 6 Xposition Yposition Zposition Zrotation Yrotation Xrotation
			JOINT Spine2
			{
				OFFSET 0.000000 0.000000 11.682266
				CHANNELS 6 Xposition Yposition Zposition Zrotation Yrotation Xrotation
				JOINT Spine3
				{
					OFFSET 0.000000 0.000000 11.746696
					CHANNELS 6 Xposition Yposition Zposition Zrotation Yrotation Xrotation
					JOINT Neck
					{
						OFFSET 0.000000 0.000000 17.658264
						CHANNELS 6 Xposition Yposition Zposition Zrotation Yrotation Xrotation
						JOINT Neck1
						{
							OFFSET 0.000000 0.000000 5.101517
							CHANNELS 6 Xposition Yposition Zposition Zrotation Yrotation Xrotation
							JOINT Head
							{
								OFFSET 0.000000 0.000000 5.101517
								CHANNELS 6 Xposition Yposition Zposition Zrotation Yrotation Xrotation
								JOINT HeadEnd
								{
									OFFSET 0.000000 0.000000 11.655090
									CHANNELS 6 Xposition Yposition Zposition Zrotation Yrotation Xrotation
									End Site
									{
										OFFSET 0.000000 0.000000 0.100006
									}
								}
							}
						}
					}
					JOINT RightShoulder
					{
						OFFSET -2.625397 0.000000 11.175217
						CHANNELS 6 Xposition Yposition Zposition Zrotation Yrotation Xrotation
						JOINT RightArm
						{
							OFFSET 0.000000 0.000000 10.434708
							CHANNELS 6 Xposition Yposition Zposition Zrotation Yrotation Xrotation
							JOINT RightForeArm
							{
								OFFSET 0.000000 0.000000 29.628418
								CHANNELS 6 Xposition Yposition Zposition Zrotation Yrotation Xrotation
								JOINT RightHand
								{
									OFFSET 0.000000 0.000000 22.857605
									CHANNELS 6 Xposition Yposition Zposition Zrotation Yrotation Xrotation
									JOINT RightHandThumb1
									{
										OFFSET -2.867310 -2.944275 3.959564
										CHANNELS 6 Xposition Yposition Zposition Zrotation Yrotation Xrotation
										JOINT RightHandThumb2
										{
											OFFSET 0.000000 0.000000 3.350403
											CHANNELS 6 Xposition Yposition Zposition Zrotation Yrotation Xrotation
											JOINT RightHandThumb3
											{
												OFFSET 0.000000 0.000000 3.756516
												CHANNELS 6 Xposition Yposition Zposition Zrotation Yrotation Xrotation
												JOINT RightHandThumb4
												{
													OFFSET 0.000000 0.000000 3.147339
													CHANNELS 6 Xposition Yposition Zposition Zrotation Yrotation Xrotation
													End Site
													{
														OFFSET 0.000000 0.000000 0.100006
													}
												}
											}
										}
									}
									JOINT RightHandIndex1
									{
										OFFSET -0.086761 -2.345276 10.030899
										CHANNELS 6 Xposition Yposition Zposition Zrotation Yrotation Xrotation
										JOINT RightHandIndex2
										{
											OFFSET 0.000000 0.000000 4.061096
											CHANNELS 6 Xposition Yposition Zposition Zrotation Yrotation Xrotation
											JOINT RightHandIndex3
											{
												OFFSET 0.000000 0.000000 3.248871
												CHANNELS 6 Xposition Yposition Zposition Zrotation Yrotation Xrotation
												JOINT RightHandIndex4
												{
													OFFSET 0.000000 0.000000 2.639709
													CHANNELS 6 Xposition Yposition Zposition Zrotation Yrotation Xrotation
													End Site
													{
														OFFSET 0.000000 0.000000 0.100006
													}
												}
											}
										}
									}
									JOINT RightHandMiddle1
									{
										OFFSET 0.104095 -0.006775 9.502945
										CHANNELS 6 Xposition Yposition Zposition Zrotation Yrotation Xrotation
										JOINT RightHandMiddle2
										{
											OFFSET 0.000000 0.000000 4.568726
											CHANNELS 6 Xposition Yposition Zposition Zrotation Yrotation Xrotation
											JOINT RightHandMiddle3
											{
												OFFSET 0.000000 0.000000 3.654984
												CHANNELS 6 Xposition Yposition Zposition Zrotation Yrotation Xrotation
												JOINT RightHandMiddle4
												{
													OFFSET 0.000000 0.000000 2.741241
													CHANNELS 6 Xposition Yposition Zposition Zrotation Yrotation Xrotation
													End Site
													{
														OFFSET 0.000000 0.000000 0.100006
													}
												}
											}
										}
									}
									JOINT RightHandRing1
									{
										OFFSET 0.086761 2.267456 8.921707
										CHANNELS 6 Xposition Yposition Zposition Zrotation Yrotation Xrotation
										JOINT RightHandRing2
										{
											OFFSET 0.000000 0.000000 4.061096
											CHANNELS 6 Xposition Yposition Zposition Zrotation Yrotation Xrotation
											JOINT RightHandRing3
											{
												OFFSET 0.000000 0.000000 3.654984
												CHANNELS 6 Xposition Yposition Zposition Zrotation Yrotation Xrotation
												JOINT RightHandRing4
												{
													OFFSET 0.000000 0.000000 2.741241
													CHANNELS 6 Xposition Yposition Zposition Zrotation Yrotation Xrotation
													End Site
													{
														OFFSET 0.000000 0.000000 0.100006
													}
												}
											}
										}
									}
									JOINT RightHandPinky1
									{
										OFFSET -0.173492 4.467224 7.976990
										CHANNELS 6 Xposition Yposition Zposition Zrotation Yrotation Xrotation
										JOINT RightHandPinky2
										{
											OFFSET 0.000000 0.000000 3.350403
											CHANNELS 6 Xposition Yposition Zposition Zrotation Yrotation Xrotation
											JOINT RightHandPinky3
											{
												OFFSET 0.000000 0.000000 2.842758
												CHANNELS 6 Xposition Yposition Zposition Zrotation Yrotation Xrotation
												JOINT RightHandPinky4
												{
													OFFSET 0.000000 0.000000 2.639709
													CHANNELS 6 Xposition Yposition Zposition Zrotation Yrotation Xrotation
													End Site
													{
														OFFSET 0.000000 0.000000 0.100006
													}
												}
											}
										}
									}
									JOINT RightForeArmEnd
									{
										OFFSET 0.000000 0.000000 0.000000
										CHANNELS 6 Xposition Yposition Zposition Zrotation Yrotation Xrotation
										End Site
										{
											OFFSET 0.000000 0.000000 0.100006
										}
									}
								}
								JOINT RightArmEnd
								{
									OFFSET 0.000000 0.000000 0.000000
									CHANNELS 6 Xposition Yposition Zposition Zrotation Yrotation Xrotation
									End Site
									{
										OFFSET 0.000000 0.000000 0.100006
									}
								}
							}
						}
					}
					JOINT LeftShoulder
					{
						OFFSET 2.625397 0.000000 11.175217
						CHANNELS 6 Xposition Yposition Zposition Zrotation Yrotation Xrotation
						JOINT LeftArm
						{
							OFFSET 0.000000 0.000000 10.813629
							CHANNELS 6 Xposition Yposition Zposition Zrotation Yrotation Xrotation
							JOINT LeftForeArm
							{
								OFFSET 0.000000 0.000000 28.724777
								CHANNELS 6 Xposition Yposition Zposition Zrotation Yrotation Xrotation
								JOINT LeftHand
								{
									OFFSET 0.644379 0.328857 25.716171
									CHANNELS 6 Xposition Yposition Zposition Zrotation Yrotation Xrotation
									JOINT LeftHandThumb1
									{
										OFFSET 2.867310 -2.944275 3.959564
										CHANNELS 6 Xposition Yposition Zposition Zrotation Yrotation Xrotation
										JOINT LeftHandThumb2
										{
											OFFSET 0.000000 0.000000 3.350403
											CHANNELS 6 Xposition Yposition Zposition Zrotation Yrotation Xrotation
											JOINT LeftHandThumb3
											{
												OFFSET 0.000000 0.000000 3.756516
												CHANNELS 6 Xposition Yposition Zposition Zrotation Yrotation Xrotation
												JOINT LeftHandThumb4
												{
													OFFSET 0.000000 0.000000 3.100006
													CHANNELS 6 Xposition Yposition Zposition Zrotation Yrotation Xrotation
													End Site
													{
														OFFSET 0.000000 0.000000 0.100006
													}
												}
											}
										}
									}
									JOINT LeftHandIndex1
									{
										OFFSET 0.086761 -2.345276 10.030899
										CHANNELS 6 Xposition Yposition Zposition Zrotation Yrotation Xrotation
										JOINT LeftHandIndex2
										{
											OFFSET 0.000000 0.000000 4.061096
											CHANNELS 6 Xposition Yposition Zposition Zrotation Yrotation Xrotation
											JOINT LeftHandIndex3
											{
												OFFSET 0.000000 0.000000 3.248871
												CHANNELS 6 Xposition Yposition Zposition Zrotation Yrotation Xrotation
												JOINT LeftHandIndex4
												{
													OFFSET 0.000000 0.000000 2.639709
													CHANNELS 6 Xposition Yposition Zposition Zrotation Yrotation Xrotation
													End Site
													{
														OFFSET 0.000000 0.000000 0.100006
													}
												}
											}
										}
									}
									JOINT LeftHandMiddle1
									{
										OFFSET -0.104095 -0.006775 9.502945
										CHANNELS 6 Xposition Yposition Zposition Zrotation Yrotation Xrotation
										JOINT LeftHandMiddle2
										{
											OFFSET 0.000000 0.000000 4.568726
											CHANNELS 6 Xposition Yposition Zposition Zrotation Yrotation Xrotation
											JOINT LeftHandMiddle3
											{
												OFFSET 0.000000 0.000000 3.654984
												CHANNELS 6 Xposition Yposition Zposition Zrotation Yrotation Xrotation
												JOINT LeftHandMiddle4
												{
													OFFSET 0.000000 0.000000 2.741241
													CHANNELS 6 Xposition Yposition Zposition Zrotation Yrotation Xrotation
													End Site
													{
														OFFSET 0.000000 0.000000 0.100006
													}
												}
											}
										}
									}
									JOINT LeftHandRing1
									{
										OFFSET -0.086761 2.267456 8.921707
										CHANNELS 6 Xposition Yposition Zposition Zrotation Yrotation Xrotation
										JOINT LeftHandRing2
										{
											OFFSET 0.000000 0.000000 4.061096
											CHANNELS 6 Xposition Yposition Zposition Zrotation Yrotation Xrotation
											JOINT LeftHandRing3
											{
												OFFSET 0.000000 0.000000 3.654984
												CHANNELS 6 Xposition Yposition Zposition Zrotation Yrotation Xrotation
												JOINT LeftHandRing4
												{
													OFFSET 0.000000 0.000000 2.741241
													CHANNELS 6 Xposition Yposition Zposition Zrotation Yrotation Xrotation
													End Site
													{
														OFFSET 0.000000 0.000000 0.100006
													}
												}
											}
										}
									}
									JOINT LeftHandPinky1
									{
										OFFSET 0.173492 4.467224 7.976990
										CHANNELS 6 Xposition Yposition Zposition Zrotation Yrotation Xrotation
										JOINT LeftHandPinky2
										{
											OFFSET 0.000000 0.000000 3.350403
											CHANNELS 6 Xposition Yposition Zposition Zrotation Yrotation Xrotation
											JOINT LeftHandPinky3
											{
												OFFSET 0.000000 0.000000 2.842758
												CHANNELS 6 Xposition Yposition Zposition Zrotation Yrotation Xrotation
												JOINT LeftHandPinky4
												{
													OFFSET 0.000000 0.000000 2.639709
													CHANNELS 6 Xposition Yposition Zposition Zrotation Yrotation Xrotation
													End Site
													{
														OFFSET 0.000000 0.000000 0.100006
													}
												}
											}
										}
									}
									JOINT LeftForeArmEnd
									{
										OFFSET 0.000000 0.000000 0.000000
										CHANNELS 6 Xposition Yposition Zposition Zrotation Yrotation Xrotation
										End Site
										{
											OFFSET 0.000000 0.000000 0.100006
										}
									}
								}
								JOINT LeftArmEnd
								{
									OFFSET 0.000000 0.000000 0.000000
									CHANNELS 6 Xposition Yposition Zposition Zrotation Yrotation Xrotation
									End Site
									{
										OFFSET 0.000000 0.000000 0.100006
									}
								}
							}
						}
					}
				}
			}
		}
	}
	JOINT RightUpLeg
	{
		OFFSET -11.289948 0.000000 0.000000
		CHANNELS 6 Xposition Yposition Zposition Zrotation Yrotation Xrotation
		JOINT RightLeg
		{
			OFFSET 0.000000 0.000000 -38.200329
			CHANNELS 6 Xposition Yposition Zposition Zrotation Yrotation Xrotation
			JOINT RightFoot
			{
				OFFSET 0.000000 0.000000 -39.900856
				CHANNELS 6 Xposition Yposition Zposition Zrotation Yrotation Xrotation
				JOINT RightToeBase
				{
					OFFSET 0.000000 -15.261658 0.000002
					CHANNELS 6 Xposition Yposition Zposition Zrotation Yrotation Xrotation
					JOINT RightToeBaseEnd
					{
						OFFSET 0.000000 -7.370728 0.000000
						CHANNELS 6 Xposition Yposition Zposition Zrotation Yrotation Xrotation
						End Site
						{
							OFFSET 0.000000 0.000000 0.100000
						}
					}
				}
				JOINT RightLegEnd
				{
					OFFSET 0.000000 0.000000 0.000000
					CHANNELS 6 Xposition Yposition Zposition Zrotation Yrotation Xrotation
					End Site
					{
						OFFSET 0.000000 0.000000 0.100000
					}
				}
			}
			JOINT RightUpLegEnd
			{
				OFFSET 0.000000 0.000000 0.000000
				CHANNELS 6 Xposition Yposition Zposition Zrotation Yrotation Xrotation
				End Site
				{
					OFFSET 0.000000 0.000000 0.099998
				}
			}
		}
	}
	JOINT LeftUpLeg
	{
		OFFSET 11.315674 0.000000 0.000000
		CHANNELS 6 Xposition Yposition Zposition Zrotation Yrotation Xrotation
		JOINT LeftLeg
		{
			OFFSET 0.000000 0.000000 -38.200329
			CHANNELS 6 Xposition Yposition Zposition Zrotation Yrotation Xrotation
			JOINT LeftFoot
			{
				OFFSET 0.000000 0.000000 -39.900856
				CHANNELS 6 Xposition Yposition Zposition Zrotation Yrotation Xrotation
				JOINT LeftToeBase
				{
					OFFSET 0.000000 -15.261658 0.000002
					CHANNELS 6 Xposition Yposition Zposition Zrotation Yrotation Xrotation
					JOINT LeftToeBaseEnd
					{
						OFFSET 0.000000 -7.539978 0.000000
						CHANNELS 6 Xposition Yposition Zposition Zrotation Yrotation Xrotation
						End Site
						{
							OFFSET 0.000000 0.000000 0.100000
						}
					}
				}
				JOINT LeftLegEnd
				{
					OFFSET 0.000000 0.000000 0.000000
					CHANNELS 6 Xposition Yposition Zposition Zrotation Yrotation Xrotation
					End Site
					{
						OFFSET 0.000000 0.000000 0.100000
					}
				}
			}
			JOINT LeftUpLegEnd
			{
				OFFSET 0.000000 0.000000 0.000000
				CHANNELS 6 Xposition Yposition Zposition Zrotation Yrotation Xrotation
				End Site
				{
					OFFSET 0.000000 0.000000 0.099998
				}
			}
		}
	}
}
MOTION
Frames: 2
Frame Time: 0.016667
-23.918701 -5.912781 87.431366 39.505862 3.221298 -10.491412 0.000005 2.080087 8.814243 -0.561280 -6.352053 8.505448 -0.000001 0.000020 8.844149 0.134667 -1.175863 3.463440 0.000002 -0.000012 11.682274 6.258608 2.823944 4.688004 -0.000005 0.000021 11.746695 3.084389 2.794065 2.187651 0.000015 -0.000005 17.658272 -11.923837 -26.482493 9.493607 -0.000015 -0.000010 5.101506 -2.952667 -2.027826 -3.333839 -0.000014 0.000026 5.101498 -0.622690 -1.453819 -12.412404 -0.000003 -0.000001 11.655055 0.000000 0.000000 -0.000001 -2.625393 -0.000020 11.175214 17.337648 -82.334454 0.094165 0.000011 0.000008 10.434708 6.333378 -25.275754 20.822455 -0.000008 0.000023 29.628410 34.290767 -0.457195 42.819040 -0.000046 -0.000008 22.857590 -24.291339 17.866781 -7.481127 -2.867325 -2.944244 3.959557 32.131351 -14.558140 55.808724 -0.000017 0.000019 3.350399 -6.766215 5.410489 -12.729330 -0.000021 0.000011 3.756514 -4.569042 3.919161 -8.765403 -0.000011 -0.000056 3.147319 -0.000000 0.000002 0.000002 -0.086758 -2.345280 10.030914 -6.618928 12.248667 9.797372 0.000013 -0.000044 4.061081 0.505378 -0.000590 -0.000061 -0.000006 -0.000072 3.248903 0.005044 0.000002 0.000421 -0.000029 0.000002 2.639725 -0.000002 0.000000 -0.000003 0.104084 -0.006828 9.502966 -2.890623 3.735585 5.435582 -0.000038 -0.000029 4.568719 0.504506 -0.000139 0.000004 -0.000032 -0.000012 3.654972 0.003890 -0.000002 0.000000 -0.000031 -0.000013 2.741242 0.000002 -0.000001 0.000001 0.086723 2.267450 8.921703 0.950220 -21.290982 5.000326 -0.000034 -0.000083 4.061110 -0.879916 -14.789147 -0.925189 0.000038 0.000008 3.655006 0.120078 -14.789137 -0.925237 -0.000028 0.000007 2.741230 -0.000002 -0.000000 0.000001 -0.173492 4.467171 7.976959 8.384055 -41.758465 -6.213597 -0.000050 -0.000046 3.350426 -0.368329 -29.244999 -6.248237 0.000038 -0.000048 2.842773 1.631663 -29.245019 -6.248200 -0.000002 -0.000061 2.639714 -0.000000 -0.000000 0.000001 -0.000010 -0.000007 -0.000007 0.000002 0.000002 0.000003 0.000011 -0.000018 -0.000003 0.000002 0.000001 0.000001 2.625397 -0.000002 11.175202 -11.259128 86.847863 -0.058956 0.000000 -0.000019 10.813625 51.121524 59.310330 34.918096 0.000010 0.000000 28.724730 -1.291634 -1.016825 44.629771 0.644325 0.328848 25.716158 -5.965866 -36.820184 -2.711342 2.867268 -2.944336 3.959549 -31.542114 18.150159 50.178712 0.000011 -0.000015 3.350441 14.636447 -9.151775 -26.138060 -0.000057 -0.000019 3.756496 9.712269 -7.081434 -17.867934 -0.000035 -0.000009 3.100013 0.000001 -0.000001 0.000002 0.086739 -2.345271 10.030941 -185.099998 158.917028 -185.338180 -0.000029 0.000013 4.061106 0.206689 15.232517 -2.193247 -0.000023 0.000014 3.248867 -0.293330 15.232418 -2.193282 -0.000035 0.000012 2.639702 -0.000002 0.000001 0.000001 -0.104122 -0.006764 9.502983 -178.722172 152.991975 -184.315278 -0.000021 -0.000033 4.568754 0.320347 19.343155 -1.054138 -0.000011 -0.000051 3.655012 -0.179656 19.343116 -1.054149 -0.000018 0.000007 2.741297 -0.000001 0.000001 -0.000001 -0.086784 2.267435 8.921776 -157.337615 125.403120 -159.573177 -0.000023 0.000011 4.061111 0.070875 39.999084 2.941714 -0.000048 0.000027 3.655033 1.070863 39.999077 2.941701 -0.000051 0.000005 2.741244 -0.000000 -0.000000 -0.000000 0.173508 4.467246 7.976974 -116.048056 115.550039 -117.018612 -0.000015 -0.000013 3.350449 5.742270 53.569744 15.269508 0.000019 -0.000006 2.842804 7.742277 53.569758 15.269508 -0.000027 -0.000002 2.639709 0.000001 0.000002 0.000001 -0.000004 0.000001 0.000057 -0.000000 0.000002 -0.000000 -0.000012 0.000008 -0.000003 -0.000001 0.000001 -0.000001 -11.289959 -0.000004 -0.000019 -12.052227 14.134046 3.757307 -0.000014 0.000006 -38.200321 -1.016830 0.148972 8.334110 0.000030 -0.000013 -39.900879 -31.229018 1.227690 39.612379 0.000013 -15.261772 0.000035 -0.890170 3.306589 -22.058801 0.000046 -7.370666 -0.000003 -0.000000 0.000001 0.000001 -0.000009 0.000065 -0.000004 -0.000001 0.000000 -0.000001 -0.000011 0.000007 0.000002 -0.000001 0.000002 0.000000 11.315692 -0.000007 -0.000003 -10.096727 -9.590961 0.679337 0.000019 0.000008 -38.200317 0.891479 -0.440723 26.304440 0.000026 0.000018 -39.900860 8.035899 4.227841 12.845042 -0.000002 -15.261724 0.000022 -1.816542 -0.217140 -22.052690 -0.000031 -7.539995 -0.000001 0.000003 0.000000 0.000000 0.000006 -0.000004 -0.000001 0.000001 -0.000002 0.000001 0.000026 0.000073 0.000003 -0.000002 0.000000 -0.000001 
-23.211639 -5.246033 87.605682 39.321621 3.400905 -10.337872 0.000014 2.080095 8.814240 -0.514272 -6.024792 8.349690 0.000009 0.000014 8.844164 0.135609 -1.141119 3.432068 0.000012 -0.000009 11.682277 6.126744 2.534947 4.686536 -0.000018 -0.000005 11.746671 3.100175 2.343363 2.210953 0.000015 0.000000 17.658279 -11.636604 -26.514067 9.212456 0.000001 0.000002 5.101499 -2.629116 -2.167475 -3.374886 0.000005 -0.000032 5.101501 -0.569743 -1.524421 -12.322909 0.000007 0.000014 11.655087 -0.000001 0.000004 -0.000000 -2.625381 0.000006 11.175221 17.265069 -82.875453 0.114646 0.000004 0.000010 10.434692 1.060927 -25.803012 20.724196 0.000000 0.000031 29.628414 34.385378 -0.407869 47.634152 -0.000046 0.000040 22.857620 -24.498186 18.422185 -7.679961 -2.867332 -2.944290 3.959579 32.008213 -15.052074 54.995372 0.000008 0.000011 3.350418 -7.829716 6.054748 -14.604973 0.000038 0.000002 3.756504 -5.270514 4.419862 -10.045182 0.000005 -0.000061 3.147357 -0.000001 -0.000001 -0.000003 -0.086830 -2.345284 10.030899 -7.367801 7.472301 8.406512 -0.000010 -0.000075 4.061125 0.502762 -0.000147 -0.000038 0.000031 -0.000034 3.248864 0.002605 -0.000001 0.000284 -0.000038 -0.000056 2.639702 -0.000001 0.000003 0.000001 0.104045 -0.006846 9.502968 -3.566750 -0.178696 4.112383 -0.000064 -0.000061 4.568733 0.500314 -0.304678 0.015963 -0.000018 -0.000013 3.654968 0.000279 -0.304666 0.015970 -0.000002 0.000008 2.741240 -0.000002 -0.000001 -0.000000 0.086744 2.267477 8.921703 0.356779 -24.731162 4.441999 -0.000004 -0.000081 4.061097 -0.834770 -17.258233 -1.088736 0.000028 -0.000090 3.654998 0.165240 -17.258242 -1.088758 -0.000003 0.000003 2.741241 -0.000000 -0.000000 -0.000002 -0.173515 4.467132 7.976986 8.284011 -45.922213 -5.681068 0.000011 -0.000043 3.350437 -0.005165 -31.945191 -6.961563 -0.000023 -0.000089 2.842812 1.994849 -31.945140 -6.961564 -0.000008 -0.000047 2.639726 -0.000002 0.000000 -0.000000 -0.000003 -0.000008 0.000003 0.000001 -0.000001 0.000001 -0.000026 -0.000001 -0.000004 0.000000 -0.000001 0.000003 2.625381 -0.000027 11.175239 -11.129723 86.909922 -0.062633 -0.000023 -0.000004 10.813622 52.008182 59.467199 36.408928 0.000045 -0.000029 28.724785 -0.395238 -0.961316 43.442107 0.644325 0.328815 25.716158 -5.810941 -36.306308 -3.373129 2.867264 -2.944336 3.959557 -31.489378 19.773220 47.804938 -0.000038 -0.000015 3.350441 18.261078 -10.170163 -32.056523 -0.000019 -0.000038 3.756508 12.069439 -8.177622 -21.867749 -0.000075 0.000015 3.099994 -0.000001 -0.000001 0.000000 0.086721 -2.345280 10.030910 -183.328780 146.546135 -187.544605 -0.000067 0.000002 4.061131 -0.268031 24.076360 -3.600397 -0.000038 -0.000003 3.248913 -0.768033 24.076343 -3.600395 -0.000036 -0.000007 2.639703 0.000001 -0.000000 0.000000 -0.104137 -0.006807 9.502953 -176.466775 141.887536 -183.223144 0.000018 -0.000064 4.568744 0.126380 27.207094 -1.543851 0.000017 -0.000083 3.654984 -0.373617 27.207020 -1.543856 -0.000033 0.000000 2.741243 -0.000000 0.000002 0.000001 -0.086784 2.267445 8.921768 -152.697581 120.336677 -155.227018 0.000002 0.000000 4.061081 0.364794 43.956061 3.380895 -0.000010 0.000027 3.655005 1.364795 43.956065 3.380892 -0.000027 0.000004 2.741258 -0.000001 0.000000 -0.000000 0.173509 4.467132 7.976990 -113.221047 114.986986 -112.233020 -0.000031 0.000015 3.350464 6.310688 54.760027 15.970611 -0.000038 -0.000021 2.842812 8.310696 54.760068 15.970622 -0.000027 -0.000002 2.639717 -0.000001 -0.000001 -0.000001 -0.000011 0.000009 0.000040 -0.000001 -0.000001 0.000002 -0.000044 -0.000000 -0.000017 0.000000 0.000001 -0.000001 -11.289928 -0.000013 -0.000019 -12.486659 13.585835 3.766263 -0.000013 0.000014 -38.200325 -1.310800 0.191791 8.322897 -0.000037 -0.000028 -39.900913 -28.706312 -0.258142 38.989049 0.000011 -15.261740 0.000048 -0.298762 3.186353 -22.000130 0.000007 -7.370670 -0.000001 0.000001 -0.000003 0.000000 0.000008 0.000011 0.000002 -0.000002 0.000000 -0.000001 -0.000036 0.000067 -0.000007 -0.000001 0.000001 0.000001 11.315704 -0.000020 0.000005 -10.377889 -9.011185 0.576202 0.000035 0.000053 -38.200294 0.809525 -0.397831 26.169697 0.000036 -0.000074 -39.900860 8.721558 3.849344 12.893657 0.000004 -15.261654 0.000008 -1.699524 -0.236289 -21.986703 -0.000026 -7.539983 0.000000 0.000001 0.000000 -0.000001 0.000008 0.000012 -0.000000 -0.000002 -0.000000 0.000002 0.000030 0.000059 -0.000003 0.000000 0.000000 -0.000000 
